<?xml version="1.0" encoding="utf-8"?>
<!-- Generator: Adobe Illustrator 18.0.0, SVG Export Plug-In . SVG Version: 6.00 Build 0)  -->
<!DOCTYPE svg PUBLIC "-//W3C//DTD SVG 1.1//EN" "http://www.w3.org/Graphics/SVG/1.1/DTD/svg11.dtd">
<svg version="1.1" id="version_1_rough_path" xmlns="http://www.w3.org/2000/svg" xmlns:xlink="http://www.w3.org/1999/xlink"
	 x="0px" y="0px" viewBox="0 0 610 206" enable-background="new 0 0 610 206" xml:space="preserve">
<g>
	<path fill-rule="evenodd" clip-rule="evenodd" fill="#FFFFFF" d="M334.2,146.4c-9.8,4.2-22.4,6.9-32.6,2.8
		c-8.3-3.3-14.1-10.8-16.8-19.2c-3.2-9.6-2.9-19.3,0.5-28.7c4-10.8,12.3-21.1,22.1-28.8c9.5-7.4,19.9-12.5,32.1-12.8
		c5.3-0.1,10.9,0.9,15.4,4.2c5.1,3.7,7.5,10.3,5.7,16.2c-1.9,6.2-4.9,9-9.8,13c-5.2,4.2-9.2,6.7-15.4,9.4c-3,1.3-8.6,3.2-12,4.3
		c-4.6,1.4-8.3,1.7-9.1-1.4c-0.7-2.7,1.8-4,5.4-5.2c18.7-5.9,25.8-12.1,28.6-14.8c4.7-4.5,7.6-10,3.9-15c-3.3-4.5-8.1-5-13.4-4.7
		c-5.8,0.4-13.4,2.4-20.6,7.2C313.7,76,290,93,289.5,115.7c0,2,1.2,11.9,4.5,16.8c2.9,4.4,6.2,8.8,13.6,10.7
		c14.7,3.9,32.5-7.3,35.3-9.2c5.2-3.6,10.3-7.6,15.3-11.5c3.8-3.1,5.5-4.2,5.6-5.7c0.2-3.3,0.7-9.5,1.3-12.5
		c2.4-12.1,7.1-18.3,11.4-22.5c3.1-3.1,8.7-5.4,12.3-3.9c5.4,2.3,3.2,10.2,1.4,14.1c-2.4,5.4-5.2,10.9-8.9,15.5
		c-3,3.7-4.3,4.8-6.9,7.7c-1.5,1.7-2.4,2.2-1.9,4.8c0.5,2.3,2.1,4.1,3.7,4.5c4.3,0.9,9.7-6,12.6-10c3.2-4.5,5.7-7.7,8-5.7
		c2.8,2.4-3.7,10.7-5.4,12.8c-3.4,4.4-8.8,9.6-13.9,10.3c-8.3,1.2-11.3-6.6-11.4-6.7C357.2,131.7,346.1,141.3,334.2,146.4z
		 M380.4,97.8c1.6-2.6,3.5-6,4.4-8.9c0.4-1.4,1.1-6.2-1.9-4.8c-3.5,1.6-6.7,7.1-8.1,10.3c-1.1,2.4-2.8,7.2-3.3,10.5
		c-0.5,3.1-0.3,4.9-0.4,5C372.7,108.6,378.9,100.3,380.4,97.8z"/>
	<path fill-rule="evenodd" clip-rule="evenodd" fill="#FFFFFF" d="M457.7,100.8c4.9,4.7,0.8,10.3-1.8,15c3,0,5.9-1.2,8.7-2.2
		c1.6-0.6,4.2-2.1,5.3,0.2c0.4,0.8,0.3,1.8-0.2,2.6c-1.2,1.8-2.9,3.3-3.8,5.3c-1.1,2.5,0,5,2.4,6.3c1.9,1,4.2,0.9,6.2,0
		c2.3-1.1,2.5-3.2,1.9-5.5c-1.2-4-4.5-6.8-6.4-10.4c-2.3-4.2-0.9-8.5,2.7-11.5c3.8-3.2,9.7-3.8,14.5-3.7c5.1,0.2,11.3,3.3,12,8.9
		c0.7,5.1-2.5,10.1-4.6,14c-0.7,1.2-1.5,5.5-0.1,6.6c1.9,1.5,5.6-1.3,7-2.4c4.4-3.3,8.8-6.6,13.2-9.9c3.4-2.5,8.1-5.9,12.6-4.8
		c5,1.2,6.2,6.8,7.1,11c0.4,1.8,1.4,4,2.5,5.6c1.5,2.2,3.5,2.2,6.4,1.4c3-0.8,5.2-2.1,7.8-3.4c3.2-1.6,4.5-2.7,6.2-0.9
		c1.5,1.6,1,3.3-1.2,4.9c-2.5,1.8-5.4,3.2-8.3,4.2c-5.6,1.9-11.8,1.7-15.6-3.4c-1.8-2.4-2.6-5-3.4-7.9c-0.5-1.9-1.3-5.3-4-5.5
		c-3.3-0.3-12.2,8.1-14.8,9.8c-4.4,2.9-9.2,7.2-14.8,7.1c-2.4,0-5.2-0.9-6.4-3.2c-1.4-2.7-0.7-6.5,0.2-9.3c0.7-2.2,1.9-4.2,2.9-6.2
		c0.9-1.8,2.3-4.2,1.9-6.3c-1-5.9-9.2-5.3-13.6-4.7c-4.9,0.7-8.8,4.2-5.5,9c1.3,1.9,3,3.4,4.5,5.1c1.8,2.1,2.5,4.8,2.5,7.5
		c-0.1,6.5-6.4,10.2-12.9,9.1c-2.9-0.5-6.4-2.3-8-5.6c-1.4-3,0.1-6.5,1.2-9.2c-4.5,1.7-9.9,0.9-9.3,3c0.9,3.1,1.2,8.3-1.5,10.5
		c-2.5,2-7.3,2.8-9.1-1c-2-4.1,1.2-7.5,3.7-10.4c-2.6-0.3-8.1-0.6-6.8-4.8c1.5-5,7.7-1.6,10.1,0.5c1.9-2.4,4.6-5.8,4.5-8.9
		c0-2-2.1-3.6-3.6-4.1c-2.5-0.7-4.4-1-6.6,0.4c-1.4,1-4.3,4.1-6.9,8.2c-1.5,2.4-11.5,15.4-15.4,20.8c-3.6,4.9-7.6,10.6-10.9,15.6
		c-3.5,5.2-8.1,12.3-8.5,18.6c-0.1,2.4,1.2,4.8,3.5,5.7c4.8,1.9,11.1-5.2,14-8.4c6.2-7,8.5-11.9,11.4-10.4c3.5,1.8-0.2,6.8-2.2,9.6
		c-3.3,4.6-8,10.4-13.1,13.5c-4.3,2.6-11.1,3.2-15.4,0.2c-9.6-6.5-2.5-20.4,2-27.6c4.8-7.7,10.2-15.1,15.7-22.3
		c3.5-4.7,7.9-10.1,12-15.6c3.4-4.6,5.4-6.8,4.6-6.6c-5.4,1.8-11.5,5.6-16.1,8.9c-3.9,2.9-8.1,7.8-10.6,5.5c-3.2-3,2.3-6.8,7-9.9
		c4.4-2.9,10.8-6.6,16.3-8.9c1.4-0.6,6.6-2.4,7.5-2.8c1.1-0.4,1.9-2.6,2.4-5.7c1.2-7-3-7.4-9.9-6.2c-6.2,1.1-10.7,3.2-15.2,5.4
		c-3.2,1.5-5.3,3.8-7.7,2c-1.2-1-1.1-2.8,0.5-4.2c3.2-2.7,11.3-5.6,13.6-6.4c2.9-1.1,7.9-2.3,11-2.6c3.5-0.4,5.8-0.2,8.4,0.6
		c2.8,0.9,4.4,3,5,6c0.8,3.7-0.6,8.8-1.1,10.1c-0.1,0.2,0.1,0.3,0.2,0.3C447.1,97.4,454.4,97.6,457.7,100.8z M446.8,128.8
		c2.3,0.7,3-5,1.8-5C447.8,124,445.4,128.3,446.8,128.8z"/>
	<path fill-rule="evenodd" clip-rule="evenodd" fill="#FFFFFF" d="M36,117.7c2.9-0.8,4.8,0.8,4.8,3.4c0,2.2-1.6,4.1-4.2,4
		c-4.5-0.1-6.8-4.9-6.6-10.3c0.3-8.1,5.3-13,7.7-15.2c4.4-4.1,11.4-6.8,17-8c9.9-2.1,22,0.7,23.5,1c1.8,0.4,1.7-0.3,2.2-2.3
		c0.8-3,1.2-5.9,1.9-9c0.3-1.4,1.3-7.5,1.6-8.8c0.9-4.6,1.1-5.9,1.8-9.5c0.3-1.5,0.4-3.4-0.4-4.9c-2.2-3.6-5-6.6-6.9-9.3
		c-3.4-5-6.8-10.2-7.1-16.3c-0.2-4.6,2.5-9.4,7.5-9.5c5.6-0.1,8.7,3.8,10.9,8.4c2.9,6.2,2.7,12.6,2.4,19.3c-0.1,3-0.6,4,1.3,6.4
		c1.9,2.6,4.2,5,7,8.9c4.2,5.8,6.4,9.6,9.3,15.4c6.1,12.4,11.4,26.6,12.6,40.4c0.3,3,0.7,3.5,2.5,5.5c1.7,1.9,6.6,6.9,9.9,11.1
		c2.9,3.8,5.1,6.9,7.9,13.5c2,4.8,2.8,11.9-1.5,16.1c-3.4,3.4-8.9,4-12.5,0.8c-3.1-2.8-4.8-6.3-5.9-10.3c-1.8-6.6-2.7-13.5-3.8-21
		c-0.7-5.4-1-7.4-2.6-9.3c-1.6-1.9-3.5-3.6-6-6.1c-4.7-4.7-8.5-8.2-13.6-12.3c-3.6-2.9-4.5-3.8-8.6-6.5c-4.1-2.7-4.1-2.1-4.6-0.7
		c-1.9,5.8-2.8,9.6-5.3,15.6c-5.1,11.9-8,16.9-11.5,15c-3.2-1.8,0-7,2.5-11.6c2.8-5.2,4.7-9.3,5.8-12.5c0.5-1.6,2.1-5.7,2.6-7.9
		c0.4-1.9,0.7-2.6-0.9-3c-6.5-1.6-13.2-1.8-19.7-0.8c-5.6,0.9-10.6,2.6-14.8,6.5C38.3,107.5,35.6,112.4,36,117.7
		C35.7,117.8,36.2,117.4,36,117.7C36,117.6,36,116.9,36,117.7z M115.7,120C115.7,120,115.7,120,115.7,120c-2-10.7-5-19.1-9.6-30.1
		c-4-9.5-8.2-17.5-14.6-26.2c-0.7,5.4-2.3,14.1-2.9,17c-0.7,2.9-2.2,10.3-2.4,11.6c-0.4,2.1-1,2.7,1.3,4.1
		c9.9,5.9,15.4,10.5,25.4,20.7C112.9,117,115.3,119.5,115.7,120z M124.7,135.8c0,0,1,9.1,1.1,10c0.4,3.6,1.7,10.1,4.4,15.1
		c1.4,2.5,3.1,4.2,5.1,3.5c3-1,2.7-4.7,2.4-6.3c-0.4-2.4-1.5-5.5-2.9-8C131.7,144.3,124.7,135.8,124.7,135.8z M82.1,30.5
		c-1.7-1.4-7.4,0-4,6.7c2.8,5.5,8,12.7,8,12.7C86.3,49.8,87.2,34.4,82.1,30.5z"/>
	<path fill-rule="evenodd" clip-rule="evenodd" fill="#FFFFFF" d="M227.9,127.4c-5.7,0.7-10-4.4-9.7-9.5c0.3-4.8,4.5-8.5,8.2-11.1
		c1.8-1.3,3.8-2.6,5.8-3.5c4.9-2.3,7.9-0.8,6.8,2.1c-0.7,1.8-2.7,2.2-5.2,3.4c-2.1,1-4.4,2.6-5.9,3.7c-1.9,1.3-5.7,5.6-3.2,8.5
		c2.8,3.2,8.6-1.4,11.2-3.9c1.6-1.5,3.2-3.4,4.7-5c1.8-2,2.8-3.5,3.2-6.2c0.9-6.4,2.1-11.8,4.6-17.4c2.4-5.4,5.4-10.2,9.8-14.1
		c1.9-1.7,4.1-3.3,6.5-4.2c2.2-0.8,5.7-1.3,7.5,0.6c3.6,3.7,0.1,10.9-2.1,14.4c-3.1,5.1-6.3,9.8-10.3,14.2c-2.4,2.6-4.1,4.4-6.2,6.5
		c-1.8,1.9-3.2,2.9-3.7,5.6c-0.7,4.5,0.5,11.1,5,13c4.1,1.8,8.5-1,11.5-3.4c1.7-1.3,3.2-2.9,5.4-4c1.5-0.8,3.7,0.5,3.7,2.8
		c0,3-3.7,5.5-5.9,7c-4.2,3-9.9,6-15.9,4.6c-2.7-0.6-5.8-3-7.4-5.2c-1.8-2.7-2.6-6.2-3.4-9.2c0,0,0,0,0,0
		C242.1,118.2,235.6,126.4,227.9,127.4z M259.3,91.1c2.9-4,10.9-15,6-15c-3.9,0.7-7.5,6.2-9.2,9.4c-2.9,5.2-4.9,10.5-5.9,16.4
		C250.3,101.8,256.4,95.1,259.3,91.1z"/>
	<path fill-rule="evenodd" clip-rule="evenodd" fill="#FFFFFF" d="M163.9,127.5c-3.6-0.2-6.9-1.2-10-6c0,0-2.9,1.3-4,1.8
		c-4.7,2.2-11.7,3.6-15.2,0.8c-4.2-3.4-3.7-8.7-1.1-13.2c2.6-4.4,6.3-7.9,11.1-10.1c1.7-0.8,4.8-1.4,5.5,0.5
		c0.6,1.5,0.3,2.5-0.8,3.5c-1.3,1.1-3.8,1.6-6.2,3.6c-2.2,1.8-4.4,4.1-4.8,7.1c-0.1,1.1-0.1,3,1.3,4c0.9,0.6,1.9,0.9,2.8,0.8
		c2.6-0.3,5.7-1.6,7.8-3.2c1.6-1.1,1.3-1.9,0.7-4.6c-0.5-2.2,0-4.9,1.2-6.9c2.5-4.1,9.8-5.1,11.1,0.4c0.6,2.5-0.3,5-1.6,7.1
		c-0.7,1.2-1.5,2.3-2.4,3.3c-0.4,0.5-0.8,1-1.2,1.5c-0.6,0.7-0.1,1.3,0.5,2c3.8,4.7,10.9,1.7,14.9-1.4c0.5-0.4,1.1-0.9,1.6-1.3
		c0.8-0.7,0.4-0.7-0.1-1.5c-0.7-1.1-1.3-2.2-1.7-3.4c-1-2.5-1.7-5.4-0.3-7.9c2.4-4.4,9-3.4,10.9,1.1c1.1,2.5,0.3,5.2-1,7.6
		c-1.4,2.5-1.2,3-0.6,3.7c1.2,1.2,2.8,2.4,4.2,3.4c2.2,1.6,3.2,2.4,4.8,1.6c2.4-1.1,1.9-5.6,1.5-7.7c-0.4-2.5-2.9-9.1-1.2-10.7
		c1-0.9,3-0.2,4.2,1.6c1.4,2.2,1.9,4.9,2.1,7.4c0.2,2.7,0.2,5.4-0.4,8c-0.6,2.5-1.9,6.1-4.1,7.7c-2,1.5-5.5-0.3-7.2-1.4
		c-1.6-1.1-2.6-1.9-4.4-3.5c-0.4-0.3-3.2-2.7-3.4-2.9C174.8,123.6,169.6,127.9,163.9,127.5z M155.3,113.4c2.5-1.2,5.9-6.5,3.6-7.7
		C155,104.6,154.8,110.3,155.3,113.4z M177.4,105.6c-3.1,0.6,1.1,6.5,1.2,6.5C178.7,112,181.3,104.9,177.4,105.6z"/>
	<path fill-rule="evenodd" clip-rule="evenodd" fill="#FFFFFF" d="M204.6,108c1.8-2.2,4.8-4.9,7.2-5.6c2.9-0.9,5.9,1.6,3,4.7
		c-2.2,2.4-5.4,3.5-5.9,7.4c-0.4,3.6,0.7,5.7,2.9,7.7c0.9,0.9,2.7,2.9,2.8,4.1c0.1,1.5-1.1,3.2-2.5,3.3c-2.8,0.2-4.6-1.8-6.2-3.9
		c-0.8-1.1-2.2-3.5-3.1-6.6C201.2,113.9,202.4,110.7,204.6,108z"/>
	<path fill-rule="evenodd" clip-rule="evenodd" fill="#FFFFFF" d="M568.6,127.2c-0.3-1.8,0.9-4.2,3-4.6c2.8-0.6,4.4,1.7,4.6,3.8
		c0.2,1.6-0.5,3.4-2.6,4C571.8,130.9,569.2,130.2,568.6,127.2z"/>
	<path fill-rule="evenodd" clip-rule="evenodd" fill="#FFFFFF" d="M217.5,95.2c0.5-1.9,3.1-3.1,4.9-2.5c1.9,0.7,3.1,2.4,2.6,4.3
		c-0.6,2.1-2.8,3.1-4.2,3C218.5,99.9,216.9,97.5,217.5,95.2z"/>
	<path fill-rule="evenodd" clip-rule="evenodd" fill="#FFFFFF" d="M397.4,99.8c-0.1-2.5,1.7-4.1,3.8-4.1c2.1,0,3.4,1.6,3.6,3.2
		c0.1,0.9-0.3,3.9-3.5,4.2C399,103.3,397.4,101.5,397.4,99.8z"/>
</g>
</svg>
